<svg xmlns="http://www.w3.org/2000/svg" viewBox="0 0 1600 1067" width="1600" height="1067"
     role="img" aria-label="Basement Mold Remediation — placeholder image">
  <defs>
    <linearGradient id="wall-basement-mold-after" x1="0" y1="0" x2="0.3" y2="1">
      <stop offset="0" stop-color="#4A5560"/><stop offset="1" stop-color="#2E3842"/>
    </linearGradient>
    <linearGradient id="floor-basement-mold-after" x1="0" y1="0" x2="0" y2="1">
      <stop offset="0" stop-color="#232B33" stop-opacity="0.92"/>
      <stop offset="1" stop-color="#232B33"/>
    </linearGradient>
    <linearGradient id="pane-basement-mold-after" x1="0" y1="0" x2="0.4" y2="1">
      <stop offset="0" stop-color="#FFC98E" stop-opacity="0.85"/>
      <stop offset="1" stop-color="#FFC98E" stop-opacity="0.12"/>
    </linearGradient>
    <linearGradient id="shaft-basement-mold-after" x1="0" y1="0" x2="0" y2="1">
      <stop offset="0" stop-color="#FFC98E" stop-opacity="0.34"/>
      <stop offset="1" stop-color="#FFC98E" stop-opacity="0"/>
    </linearGradient>
    <radialGradient id="lamp-basement-mold-after" cx="0.691" cy="0.348" r="0.62">
      <stop offset="0" stop-color="#EFA25E" stop-opacity="0.30"/>
      <stop offset="1" stop-color="#EFA25E" stop-opacity="0"/>
    </radialGradient>
    <radialGradient id="vig-basement-mold-after" cx="0.5" cy="0.48" r="0.78">
      <stop offset="0.45" stop-color="#000000" stop-opacity="0"/>
      <stop offset="1" stop-color="#000000" stop-opacity="0.55"/>
    </radialGradient>
  </defs>

  <rect width="1600" height="1067" fill="url(#wall-basement-mold-after)"/>
  <rect x="218" y="203" width="146" height="307" rx="4" fill="url(#pane-basement-mold-after)" fill-opacity="0.38"/><rect x="218" y="203" width="146" height="307" rx="4" fill="none" stroke="#FFC98E" stroke-opacity="0.21" stroke-width="1.9"/><rect x="579" y="330" width="112" height="273" rx="4" fill="url(#pane-basement-mold-after)" fill-opacity="0.24"/><rect x="579" y="330" width="112" height="273" rx="4" fill="none" stroke="#FFC98E" stroke-opacity="0.13" stroke-width="1.9"/><rect x="853" y="280" width="160" height="298" rx="4" fill="url(#pane-basement-mold-after)" fill-opacity="0.42"/><rect x="853" y="280" width="160" height="298" rx="4" fill="none" stroke="#FFC98E" stroke-opacity="0.23" stroke-width="1.9"/><rect x="1235" y="123" width="140" height="388" rx="4" fill="url(#pane-basement-mold-after)" fill-opacity="0.23"/><rect x="1235" y="123" width="140" height="388" rx="4" fill="none" stroke="#FFC98E" stroke-opacity="0.12" stroke-width="1.9"/>
  <rect y="675" width="1600" height="392" fill="url(#floor-basement-mold-after)"/>
  <rect y="675" width="1600" height="1.9" fill="#FFC98E" fill-opacity="0.18"/>
  <path d="M977 675 L1265 675 L1649 1067 L625 1067 Z" fill="url(#shaft-basement-mold-after)" fill-opacity="0.5"/>
  <rect width="1600" height="1067" fill="url(#lamp-basement-mold-after)"/>
  <rect width="1600" height="1067" fill="url(#vig-basement-mold-after)"/>
  <text x="800" y="534" text-anchor="middle"
        font-family="Inter, Helvetica, Arial, sans-serif" font-size="40"
        font-weight="650" fill="#FFFFFF" fill-opacity="0.90">Basement Mold Remediation</text>
  <text x="800" y="583" text-anchor="middle"
        font-family="Inter, Helvetica, Arial, sans-serif" font-size="24"
        font-weight="500" letter-spacing="2.4"
        fill="#FFFFFF" fill-opacity="0.40">REPLACE WITH PHOTO</text>
  <g>
    <rect x="38" y="38" width="136" height="59"
          rx="30" fill="#EFA25E" fill-opacity="0.95"/>
    <text x="106" y="77" text-anchor="middle"
          font-family="Inter, Helvetica, Arial, sans-serif" font-size="25"
          font-weight="700" letter-spacing="3.1" fill="#0B0E12">AFTER</text>
  </g>
</svg>
