<svg xmlns="http://www.w3.org/2000/svg" viewBox="0 0 1600 1067" width="1600" height="1067"
     role="img" aria-label="Finished Basement — placeholder image">
  <defs>
    <linearGradient id="wall-basement-finish-after" x1="0" y1="0" x2="0.3" y2="1">
      <stop offset="0" stop-color="#4A5560"/><stop offset="1" stop-color="#2E3842"/>
    </linearGradient>
    <linearGradient id="floor-basement-finish-after" x1="0" y1="0" x2="0" y2="1">
      <stop offset="0" stop-color="#232B33" stop-opacity="0.92"/>
      <stop offset="1" stop-color="#232B33"/>
    </linearGradient>
    <linearGradient id="pane-basement-finish-after" x1="0" y1="0" x2="0.4" y2="1">
      <stop offset="0" stop-color="#FFC98E" stop-opacity="0.85"/>
      <stop offset="1" stop-color="#FFC98E" stop-opacity="0.12"/>
    </linearGradient>
    <linearGradient id="shaft-basement-finish-after" x1="0" y1="0" x2="0" y2="1">
      <stop offset="0" stop-color="#FFC98E" stop-opacity="0.34"/>
      <stop offset="1" stop-color="#FFC98E" stop-opacity="0"/>
    </linearGradient>
    <radialGradient id="lamp-basement-finish-after" cx="0.445" cy="0.353" r="0.62">
      <stop offset="0" stop-color="#EFA25E" stop-opacity="0.30"/>
      <stop offset="1" stop-color="#EFA25E" stop-opacity="0"/>
    </radialGradient>
    <radialGradient id="vig-basement-finish-after" cx="0.5" cy="0.48" r="0.78">
      <stop offset="0.45" stop-color="#000000" stop-opacity="0"/>
      <stop offset="1" stop-color="#000000" stop-opacity="0.55"/>
    </radialGradient>
  </defs>

  <rect width="1600" height="1067" fill="url(#wall-basement-finish-after)"/>
  <rect x="254" y="275" width="107" height="313" rx="4" fill="url(#pane-basement-finish-after)" fill-opacity="0.28"/><rect x="254" y="275" width="107" height="313" rx="4" fill="none" stroke="#FFC98E" stroke-opacity="0.15" stroke-width="1.9"/><rect x="563" y="261" width="108" height="348" rx="4" fill="url(#pane-basement-finish-after)" fill-opacity="0.37"/><rect x="563" y="261" width="108" height="348" rx="4" fill="none" stroke="#FFC98E" stroke-opacity="0.20" stroke-width="1.9"/><rect x="902" y="308" width="159" height="305" rx="4" fill="url(#pane-basement-finish-after)" fill-opacity="0.25"/><rect x="902" y="308" width="159" height="305" rx="4" fill="none" stroke="#FFC98E" stroke-opacity="0.14" stroke-width="1.9"/><rect x="1204" y="300" width="112" height="261" rx="4" fill="url(#pane-basement-finish-after)" fill-opacity="0.17"/><rect x="1204" y="300" width="112" height="261" rx="4" fill="none" stroke="#FFC98E" stroke-opacity="0.09" stroke-width="1.9"/>
  <rect y="684" width="1600" height="383" fill="url(#floor-basement-finish-after)"/>
  <rect y="684" width="1600" height="1.9" fill="#FFC98E" fill-opacity="0.18"/>
  <path d="M583 684 L871 684 L1255 1067 L231 1067 Z" fill="url(#shaft-basement-finish-after)" fill-opacity="0.5"/>
  <rect width="1600" height="1067" fill="url(#lamp-basement-finish-after)"/>
  <rect width="1600" height="1067" fill="url(#vig-basement-finish-after)"/>
  <text x="800" y="534" text-anchor="middle"
        font-family="Inter, Helvetica, Arial, sans-serif" font-size="40"
        font-weight="650" fill="#FFFFFF" fill-opacity="0.90">Finished Basement</text>
  <text x="800" y="583" text-anchor="middle"
        font-family="Inter, Helvetica, Arial, sans-serif" font-size="24"
        font-weight="500" letter-spacing="2.4"
        fill="#FFFFFF" fill-opacity="0.40">REPLACE WITH PHOTO</text>
  <g>
    <rect x="38" y="38" width="136" height="59"
          rx="30" fill="#EFA25E" fill-opacity="0.95"/>
    <text x="106" y="77" text-anchor="middle"
          font-family="Inter, Helvetica, Arial, sans-serif" font-size="25"
          font-weight="700" letter-spacing="3.1" fill="#0B0E12">AFTER</text>
  </g>
</svg>
