<svg xmlns="http://www.w3.org/2000/svg" viewBox="0 0 1600 1067" width="1600" height="1067"
     role="img" aria-label="Front Yard Curb Appeal — placeholder image">
  <defs>
    <linearGradient id="wall-front-yard-after" x1="0" y1="0" x2="0.3" y2="1">
      <stop offset="0" stop-color="#4A5560"/><stop offset="1" stop-color="#2E3842"/>
    </linearGradient>
    <linearGradient id="floor-front-yard-after" x1="0" y1="0" x2="0" y2="1">
      <stop offset="0" stop-color="#232B33" stop-opacity="0.92"/>
      <stop offset="1" stop-color="#232B33"/>
    </linearGradient>
    <linearGradient id="pane-front-yard-after" x1="0" y1="0" x2="0.4" y2="1">
      <stop offset="0" stop-color="#FFC98E" stop-opacity="0.85"/>
      <stop offset="1" stop-color="#FFC98E" stop-opacity="0.12"/>
    </linearGradient>
    <linearGradient id="shaft-front-yard-after" x1="0" y1="0" x2="0" y2="1">
      <stop offset="0" stop-color="#FFC98E" stop-opacity="0.34"/>
      <stop offset="1" stop-color="#FFC98E" stop-opacity="0"/>
    </linearGradient>
    <radialGradient id="lamp-front-yard-after" cx="0.290" cy="0.329" r="0.62">
      <stop offset="0" stop-color="#EFA25E" stop-opacity="0.30"/>
      <stop offset="1" stop-color="#EFA25E" stop-opacity="0"/>
    </radialGradient>
    <radialGradient id="vig-front-yard-after" cx="0.5" cy="0.48" r="0.78">
      <stop offset="0.45" stop-color="#000000" stop-opacity="0"/>
      <stop offset="1" stop-color="#000000" stop-opacity="0.55"/>
    </radialGradient>
  </defs>

  <rect width="1600" height="1067" fill="url(#wall-front-yard-after)"/>
  <rect x="247" y="292" width="130" height="217" rx="4" fill="url(#pane-front-yard-after)" fill-opacity="0.16"/><rect x="247" y="292" width="130" height="217" rx="4" fill="none" stroke="#FFC98E" stroke-opacity="0.09" stroke-width="1.9"/><rect x="596" y="177" width="124" height="312" rx="4" fill="url(#pane-front-yard-after)" fill-opacity="0.16"/><rect x="596" y="177" width="124" height="312" rx="4" fill="none" stroke="#FFC98E" stroke-opacity="0.09" stroke-width="1.9"/><rect x="887" y="189" width="104" height="387" rx="4" fill="url(#pane-front-yard-after)" fill-opacity="0.38"/><rect x="887" y="189" width="104" height="387" rx="4" fill="none" stroke="#FFC98E" stroke-opacity="0.21" stroke-width="1.9"/><rect x="1240" y="248" width="123" height="232" rx="4" fill="url(#pane-front-yard-after)" fill-opacity="0.23"/><rect x="1240" y="248" width="123" height="232" rx="4" fill="none" stroke="#FFC98E" stroke-opacity="0.13" stroke-width="1.9"/>
  <rect y="638" width="1600" height="429" fill="url(#floor-front-yard-after)"/>
  <rect y="638" width="1600" height="1.9" fill="#FFC98E" fill-opacity="0.18"/>
  <path d="M336 638 L624 638 L1008 1067 L-16 1067 Z" fill="url(#shaft-front-yard-after)" fill-opacity="0.5"/>
  <rect width="1600" height="1067" fill="url(#lamp-front-yard-after)"/>
  <rect width="1600" height="1067" fill="url(#vig-front-yard-after)"/>
  <text x="800" y="534" text-anchor="middle"
        font-family="Inter, Helvetica, Arial, sans-serif" font-size="40"
        font-weight="650" fill="#FFFFFF" fill-opacity="0.90">Front Yard Curb Appeal</text>
  <text x="800" y="583" text-anchor="middle"
        font-family="Inter, Helvetica, Arial, sans-serif" font-size="24"
        font-weight="500" letter-spacing="2.4"
        fill="#FFFFFF" fill-opacity="0.40">REPLACE WITH PHOTO</text>
  <g>
    <rect x="38" y="38" width="136" height="59"
          rx="30" fill="#EFA25E" fill-opacity="0.95"/>
    <text x="106" y="77" text-anchor="middle"
          font-family="Inter, Helvetica, Arial, sans-serif" font-size="25"
          font-weight="700" letter-spacing="3.1" fill="#0B0E12">AFTER</text>
  </g>
</svg>
