<svg xmlns="http://www.w3.org/2000/svg" viewBox="0 0 2400 1200" width="2400" height="1200"
     role="img" aria-label="Crew on site — illustrated placeholder">
  <defs>
<linearGradient id="wallj1445" x1="0" y1="0" x2="0" y2="1"><stop offset="0" stop-color="#DCD5C8" stop-opacity="1"/><stop offset="1" stop-color="#B8B0A2" stop-opacity="1"/></linearGradient>
<filter id="grj1445" x="0" y="0" width="100%" height="100%">
      <feTurbulence type="fractalNoise" baseFrequency="0.9" numOctaves="3" seed="7" result="n"/>
      <feColorMatrix in="n" type="saturate" values="0"/>
      <feComponentTransfer><feFuncA type="linear" slope="0.5"/></feComponentTransfer>
    </filter>
<radialGradient id="vgj1445" cx="0.5" cy="0.48" r="0.76">
      <stop offset="0.42" stop-color="#000" stop-opacity="0"/>
      <stop offset="1" stop-color="#000" stop-opacity="0.42"/>
    </radialGradient>
  </defs>
<rect x="0.0" y="0.0" width="2400.0" height="960.0" fill="url(#wallj1445)"/>
<rect x="0.0" y="960.0" width="2400.0" height="240.0" fill="#9A8F7C"/>
<rect x="0.0" y="120.0" width="48.0" height="840.0" fill="#C9AE82" fill-opacity="0.900"/>
<rect x="266.7" y="120.0" width="48.0" height="840.0" fill="#C9AE82" fill-opacity="0.900"/>
<rect x="533.3" y="120.0" width="48.0" height="840.0" fill="#C9AE82" fill-opacity="0.900"/>
<rect x="800.0" y="120.0" width="48.0" height="840.0" fill="#C9AE82" fill-opacity="0.900"/>
<rect x="1066.7" y="120.0" width="48.0" height="840.0" fill="#C9AE82" fill-opacity="0.900"/>
<rect x="1333.3" y="120.0" width="48.0" height="840.0" fill="#C9AE82" fill-opacity="0.900"/>
<rect x="1600.0" y="120.0" width="48.0" height="840.0" fill="#C9AE82" fill-opacity="0.900"/>
<rect x="1866.7" y="120.0" width="48.0" height="840.0" fill="#C9AE82" fill-opacity="0.900"/>
<rect x="2133.3" y="120.0" width="48.0" height="840.0" fill="#C9AE82" fill-opacity="0.900"/>
<rect x="0.0" y="120.0" width="2400.0" height="26.4" fill="#C9AE82"/>
<rect x="0.0" y="936.0" width="2400.0" height="26.4" fill="#C9AE82"/>
<polygon points="1320.0,0.0 2208.0,0.0 1776.0,960.0 960.0,960.0" fill="#FFFFFF" fill-opacity="0.100"/>
<line x1="384.0" y1="168.0" x2="312.0" y2="960.0" stroke="#C0C3C6" stroke-width="5.00" stroke-opacity="0.900" stroke-linecap="butt"/>
<line x1="552.0" y1="168.0" x2="480.0" y2="960.0" stroke="#C0C3C6" stroke-width="5.00" stroke-opacity="0.900" stroke-linecap="butt"/>
<line x1="384.0" y1="216.0" x2="552.0" y2="216.0" stroke="#C0C3C6" stroke-width="4.00" stroke-opacity="0.900" stroke-linecap="butt"/>
<line x1="372.0" y1="336.0" x2="540.0" y2="336.0" stroke="#C0C3C6" stroke-width="4.00" stroke-opacity="0.900" stroke-linecap="butt"/>
<line x1="360.0" y1="456.0" x2="528.0" y2="456.0" stroke="#C0C3C6" stroke-width="4.00" stroke-opacity="0.900" stroke-linecap="butt"/>
<line x1="348.0" y1="576.0" x2="516.0" y2="576.0" stroke="#C0C3C6" stroke-width="4.00" stroke-opacity="0.900" stroke-linecap="butt"/>
<line x1="336.0" y1="696.0" x2="504.0" y2="696.0" stroke="#C0C3C6" stroke-width="4.00" stroke-opacity="0.900" stroke-linecap="butt"/>
<line x1="324.0" y1="816.0" x2="492.0" y2="816.0" stroke="#C0C3C6" stroke-width="4.00" stroke-opacity="0.900" stroke-linecap="butt"/>
<line x1="1440.0" y1="960.0" x2="1344.0" y2="1176.0" stroke="#8A6A45" stroke-width="6.00" stroke-opacity="0.950" stroke-linecap="butt"/>
<line x1="1680.0" y1="960.0" x2="1776.0" y2="1176.0" stroke="#8A6A45" stroke-width="6.00" stroke-opacity="0.950" stroke-linecap="butt"/>
<rect x="1200.0" y="936.0" width="768.0" height="30.0" fill="#C9AE82"/>
<rect x="1920.0" y="840.0" width="240.0" height="120.0" fill="#E2743B" fill-opacity="0.900"/>
<rect x="0.0" y="960.0" width="2400.0" height="240.0" fill="#000" fill-opacity="0.060"/>
<text x="2379" y="1179" text-anchor="end" font-family="Inter, Helvetica, Arial, sans-serif" font-size="23" font-weight="600" letter-spacing="1.9" fill="#FFFFFF" fill-opacity="0.34">PLACEHOLDER</text>
  <rect width="2400" height="1200" filter="url(#grj1445)" opacity="0.5" style="mix-blend-mode:overlay"/>
  <rect width="2400" height="1200" fill="url(#vgj1445)"/>
</svg>
