<svg xmlns="http://www.w3.org/2000/svg" viewBox="0 0 2400 1100" width="2400" height="1100"
     role="img" aria-label="Finished deck — illustrated placeholder">
  <defs>
<linearGradient id="skyd2210" x1="0" y1="0" x2="0" y2="1"><stop offset="0" stop-color="#cddeeb" stop-opacity="1"/><stop offset="1" stop-color="#BCD3E4" stop-opacity="1"/></linearGradient>
<filter id="grd2210" x="0" y="0" width="100%" height="100%">
      <feTurbulence type="fractalNoise" baseFrequency="0.9" numOctaves="3" seed="7" result="n"/>
      <feColorMatrix in="n" type="saturate" values="0"/>
      <feComponentTransfer><feFuncA type="linear" slope="0.5"/></feComponentTransfer>
    </filter>
<radialGradient id="vgd2210" cx="0.5" cy="0.48" r="0.76">
      <stop offset="0.42" stop-color="#000" stop-opacity="0"/>
      <stop offset="1" stop-color="#000" stop-opacity="0.42"/>
    </radialGradient>
  </defs>
<rect x="0.0" y="0.0" width="2400.0" height="374.0" fill="url(#skyd2210)"/>
<ellipse cx="61.4" cy="346.3" rx="144.7" ry="79.2" fill="#4C6B4A" fill-opacity="0.43"/>
<ellipse cx="206.4" cy="339.8" rx="156.8" ry="97.8" fill="#4C6B4A" fill-opacity="0.60"/>
<ellipse cx="417.3" cy="346.0" rx="155.4" ry="79.9" fill="#4C6B4A" fill-opacity="0.43"/>
<ellipse cx="631.7" cy="352.6" rx="151.3" ry="61.2" fill="#4C6B4A" fill-opacity="0.51"/>
<ellipse cx="753.2" cy="352.4" rx="183.7" ry="61.6" fill="#4C6B4A" fill-opacity="0.54"/>
<ellipse cx="1071.0" cy="348.0" rx="153.8" ry="74.2" fill="#4C6B4A" fill-opacity="0.50"/>
<ellipse cx="1216.2" cy="337.3" rx="191.7" ry="104.8" fill="#4C6B4A" fill-opacity="0.53"/>
<ellipse cx="1376.0" cy="341.3" rx="175.6" ry="93.5" fill="#4C6B4A" fill-opacity="0.53"/>
<ellipse cx="1637.9" cy="347.6" rx="139.6" ry="75.5" fill="#4C6B4A" fill-opacity="0.44"/>
<ellipse cx="1747.8" cy="344.5" rx="187.1" ry="84.2" fill="#4C6B4A" fill-opacity="0.46"/>
<ellipse cx="2049.2" cy="340.0" rx="206.2" ry="97.0" fill="#4C6B4A" fill-opacity="0.39"/>
<ellipse cx="2270.4" cy="347.1" rx="213.0" ry="76.9" fill="#4C6B4A" fill-opacity="0.50"/>
<ellipse cx="2385.0" cy="345.5" rx="180.2" ry="81.3" fill="#4C6B4A" fill-opacity="0.45"/>
<rect x="0.0" y="0.0" width="720.0" height="484.0" fill="#C6BDB0"/>
<line x1="0.0" y1="0.0" x2="720.0" y2="0.0" stroke="#000" stroke-width="1.40" stroke-opacity="0.100" stroke-linecap="butt"/>
<line x1="0.0" y1="53.8" x2="720.0" y2="53.8" stroke="#000" stroke-width="1.40" stroke-opacity="0.100" stroke-linecap="butt"/>
<line x1="0.0" y1="107.6" x2="720.0" y2="107.6" stroke="#000" stroke-width="1.40" stroke-opacity="0.100" stroke-linecap="butt"/>
<line x1="0.0" y1="161.3" x2="720.0" y2="161.3" stroke="#000" stroke-width="1.40" stroke-opacity="0.100" stroke-linecap="butt"/>
<line x1="0.0" y1="215.1" x2="720.0" y2="215.1" stroke="#000" stroke-width="1.40" stroke-opacity="0.100" stroke-linecap="butt"/>
<line x1="0.0" y1="268.9" x2="720.0" y2="268.9" stroke="#000" stroke-width="1.40" stroke-opacity="0.100" stroke-linecap="butt"/>
<line x1="0.0" y1="322.7" x2="720.0" y2="322.7" stroke="#000" stroke-width="1.40" stroke-opacity="0.100" stroke-linecap="butt"/>
<line x1="0.0" y1="376.4" x2="720.0" y2="376.4" stroke="#000" stroke-width="1.40" stroke-opacity="0.100" stroke-linecap="butt"/>
<line x1="0.0" y1="430.2" x2="720.0" y2="430.2" stroke="#000" stroke-width="1.40" stroke-opacity="0.100" stroke-linecap="butt"/>
<rect x="240.0" y="374.0" width="1920.0" height="29.9" fill="#976635"/>
<line x1="240.0" y1="374.0" x2="2160.0" y2="374.0" stroke="#000" stroke-width="1.20" stroke-opacity="0.180" stroke-linecap="butt"/>
<rect x="225.0" y="396.7" width="1950.0" height="33.1" fill="#996736"/>
<line x1="225.0" y1="396.7" x2="2175.0" y2="396.7" stroke="#000" stroke-width="1.20" stroke-opacity="0.180" stroke-linecap="butt"/>
<rect x="210.0" y="428.0" width="1980.0" height="36.2" fill="#9b6836"/>
<line x1="210.0" y1="428.0" x2="2190.0" y2="428.0" stroke="#000" stroke-width="1.20" stroke-opacity="0.180" stroke-linecap="butt"/>
<rect x="195.0" y="463.6" width="2010.0" height="39.3" fill="#9d6937"/>
<line x1="195.0" y1="463.6" x2="2205.0" y2="463.6" stroke="#000" stroke-width="1.20" stroke-opacity="0.180" stroke-linecap="butt"/>
<rect x="180.0" y="502.3" width="2040.0" height="42.4" fill="#9e6a37"/>
<line x1="180.0" y1="502.3" x2="2220.0" y2="502.3" stroke="#000" stroke-width="1.20" stroke-opacity="0.180" stroke-linecap="butt"/>
<rect x="165.0" y="543.6" width="2070.0" height="45.5" fill="#a06c38"/>
<line x1="165.0" y1="543.6" x2="2235.0" y2="543.6" stroke="#000" stroke-width="1.20" stroke-opacity="0.180" stroke-linecap="butt"/>
<rect x="150.0" y="587.0" width="2100.0" height="48.7" fill="#a26d39"/>
<line x1="150.0" y1="587.0" x2="2250.0" y2="587.0" stroke="#000" stroke-width="1.20" stroke-opacity="0.180" stroke-linecap="butt"/>
<rect x="135.0" y="632.3" width="2130.0" height="51.8" fill="#a46e39"/>
<line x1="135.0" y1="632.3" x2="2265.0" y2="632.3" stroke="#000" stroke-width="1.20" stroke-opacity="0.180" stroke-linecap="butt"/>
<rect x="120.0" y="679.2" width="2160.0" height="54.9" fill="#a66f3a"/>
<line x1="120.0" y1="679.2" x2="2280.0" y2="679.2" stroke="#000" stroke-width="1.20" stroke-opacity="0.180" stroke-linecap="butt"/>
<rect x="105.0" y="727.7" width="2190.0" height="58.0" fill="#a7713b"/>
<line x1="105.0" y1="727.7" x2="2295.0" y2="727.7" stroke="#000" stroke-width="1.20" stroke-opacity="0.180" stroke-linecap="butt"/>
<rect x="90.0" y="777.4" width="2220.0" height="61.1" fill="#a9723b"/>
<line x1="90.0" y1="777.4" x2="2310.0" y2="777.4" stroke="#000" stroke-width="1.20" stroke-opacity="0.180" stroke-linecap="butt"/>
<rect x="75.0" y="828.5" width="2250.0" height="64.3" fill="#ab733c"/>
<line x1="75.0" y1="828.5" x2="2325.0" y2="828.5" stroke="#000" stroke-width="1.20" stroke-opacity="0.180" stroke-linecap="butt"/>
<rect x="60.0" y="880.7" width="2280.0" height="67.4" fill="#ad743c"/>
<line x1="60.0" y1="880.7" x2="2340.0" y2="880.7" stroke="#000" stroke-width="1.20" stroke-opacity="0.180" stroke-linecap="butt"/>
<rect x="45.0" y="934.0" width="2310.0" height="70.5" fill="#af753d"/>
<line x1="45.0" y1="934.0" x2="2355.0" y2="934.0" stroke="#000" stroke-width="1.20" stroke-opacity="0.180" stroke-linecap="butt"/>
<rect x="30.0" y="988.4" width="2340.0" height="73.6" fill="#b0773e"/>
<line x1="30.0" y1="988.4" x2="2370.0" y2="988.4" stroke="#000" stroke-width="1.20" stroke-opacity="0.180" stroke-linecap="butt"/>
<rect x="15.0" y="1043.7" width="2370.0" height="76.7" fill="#b2783e"/>
<line x1="15.0" y1="1043.7" x2="2385.0" y2="1043.7" stroke="#000" stroke-width="1.20" stroke-opacity="0.180" stroke-linecap="butt"/>
<rect x="720.0" y="286.0" width="1680.0" height="24.2" fill="#875b2f"/>
<polygon points="768.0,286.0 796.8,286.0 796.8,473.0 768.0,473.0" fill="#7e552c"/>
<polygon points="1084.8,286.0 1113.6,286.0 1113.6,473.0 1084.8,473.0" fill="#7e552c"/>
<polygon points="1401.6,286.0 1430.4,286.0 1430.4,473.0 1401.6,473.0" fill="#7e552c"/>
<polygon points="1718.4,286.0 1747.2,286.0 1747.2,473.0 1718.4,473.0" fill="#7e552c"/>
<polygon points="2035.2,286.0 2064.0,286.0 2064.0,473.0 2035.2,473.0" fill="#7e552c"/>
<polygon points="2352.0,286.0 2380.8,286.0 2380.8,473.0 2352.0,473.0" fill="#7e552c"/>
<line x1="744.0" y1="313.5" x2="2352.0" y2="313.5" stroke="#D9D4CC" stroke-width="1.80" stroke-opacity="0.750" stroke-linecap="butt"/>
<line x1="744.0" y1="344.3" x2="2352.0" y2="344.3" stroke="#D9D4CC" stroke-width="1.80" stroke-opacity="0.750" stroke-linecap="butt"/>
<line x1="744.0" y1="375.1" x2="2352.0" y2="375.1" stroke="#D9D4CC" stroke-width="1.80" stroke-opacity="0.750" stroke-linecap="butt"/>
<line x1="744.0" y1="405.9" x2="2352.0" y2="405.9" stroke="#D9D4CC" stroke-width="1.80" stroke-opacity="0.750" stroke-linecap="butt"/>
<rect x="816.0" y="0.0" width="43.2" height="308.0" fill="#9e6a37"/>
<rect x="1176.0" y="0.0" width="43.2" height="308.0" fill="#9e6a37"/>
<rect x="1536.0" y="0.0" width="43.2" height="308.0" fill="#9e6a37"/>
<rect x="1896.0" y="0.0" width="43.2" height="308.0" fill="#9e6a37"/>
<rect x="2256.0" y="0.0" width="43.2" height="308.0" fill="#9e6a37"/>
<rect x="720.0" y="0.0" width="1680.0" height="24.2" fill="#82572d"/>
<rect x="144.0" y="594.0" width="240.0" height="132.0" fill="#8A6A45"/>
<circle cx="168.0" cy="557.1" r="43.2" fill="#4E7A52" fill-opacity="0.9"/>
<circle cx="206.4" cy="564.3" r="43.2" fill="#4E7A52" fill-opacity="0.9"/>
<circle cx="244.8" cy="552.2" r="43.2" fill="#4E7A52" fill-opacity="0.9"/>
<circle cx="283.2" cy="574.0" r="43.2" fill="#4E7A52" fill-opacity="0.9"/>
<circle cx="321.6" cy="571.4" r="43.2" fill="#4E7A52" fill-opacity="0.9"/>
<circle cx="360.0" cy="551.1" r="43.2" fill="#4E7A52" fill-opacity="0.9"/>
<text x="2380" y="1080" text-anchor="end" font-family="Inter, Helvetica, Arial, sans-serif" font-size="21" font-weight="600" letter-spacing="1.7" fill="#FFFFFF" fill-opacity="0.34">PLACEHOLDER</text>
  <rect width="2400" height="1100" filter="url(#grd2210)" opacity="0.5" style="mix-blend-mode:overlay"/>
  <rect width="2400" height="1100" fill="url(#vgd2210)"/>
</svg>
