<svg xmlns="http://www.w3.org/2000/svg" viewBox="0 0 1200 630" width="1200" height="630"
     role="img" aria-label="American Restoration Tech — placeholder image">
  <defs>
    <linearGradient id="wall-og-image" x1="0" y1="0" x2="0.3" y2="1">
      <stop offset="0" stop-color="#2A343E"/><stop offset="1" stop-color="#151C22"/>
    </linearGradient>
    <linearGradient id="floor-og-image" x1="0" y1="0" x2="0" y2="1">
      <stop offset="0" stop-color="#0E1318" stop-opacity="0.92"/>
      <stop offset="1" stop-color="#0E1318"/>
    </linearGradient>
    <linearGradient id="pane-og-image" x1="0" y1="0" x2="0.4" y2="1">
      <stop offset="0" stop-color="#F0A867" stop-opacity="0.85"/>
      <stop offset="1" stop-color="#F0A867" stop-opacity="0.12"/>
    </linearGradient>
    <linearGradient id="shaft-og-image" x1="0" y1="0" x2="0" y2="1">
      <stop offset="0" stop-color="#F0A867" stop-opacity="0.34"/>
      <stop offset="1" stop-color="#F0A867" stop-opacity="0"/>
    </linearGradient>
    <radialGradient id="lamp-og-image" cx="0.477" cy="0.359" r="0.62">
      <stop offset="0" stop-color="#D9884A" stop-opacity="0.30"/>
      <stop offset="1" stop-color="#D9884A" stop-opacity="0"/>
    </radialGradient>
    <radialGradient id="vig-og-image" cx="0.5" cy="0.48" r="0.78">
      <stop offset="0.45" stop-color="#000000" stop-opacity="0"/>
      <stop offset="1" stop-color="#000000" stop-opacity="0.55"/>
    </radialGradient>
  </defs>

  <rect width="1200" height="630" fill="url(#wall-og-image)"/>
  <rect x="222" y="135" width="84" height="242" rx="2" fill="url(#pane-og-image)" fill-opacity="0.40"/><rect x="222" y="135" width="84" height="242" rx="2" fill="none" stroke="#F0A867" stroke-opacity="0.22" stroke-width="1.1"/><rect x="405" y="109" width="111" height="199" rx="2" fill="url(#pane-og-image)" fill-opacity="0.17"/><rect x="405" y="109" width="111" height="199" rx="2" fill="none" stroke="#F0A867" stroke-opacity="0.09" stroke-width="1.1"/><rect x="668" y="168" width="73" height="201" rx="2" fill="url(#pane-og-image)" fill-opacity="0.26"/><rect x="668" y="168" width="73" height="201" rx="2" fill="none" stroke="#F0A867" stroke-opacity="0.14" stroke-width="1.1"/><rect x="906" y="116" width="87" height="198" rx="2" fill="url(#pane-og-image)" fill-opacity="0.42"/><rect x="906" y="116" width="87" height="198" rx="2" fill="none" stroke="#F0A867" stroke-opacity="0.23" stroke-width="1.1"/>
  <rect y="412" width="1200" height="218" fill="url(#floor-og-image)"/>
  <rect y="412" width="1200" height="1.1" fill="#F0A867" fill-opacity="0.18"/>
  <path d="M477 412 L693 412 L981 630 L213 630 Z" fill="url(#shaft-og-image)" fill-opacity="0.5"/>
  <rect width="1200" height="630" fill="url(#lamp-og-image)"/>
  <rect width="1200" height="630" fill="url(#vig-og-image)"/>
  <text x="600" y="315" text-anchor="middle"
        font-family="Inter, Helvetica, Arial, sans-serif" font-size="24"
        font-weight="650" fill="#FFFFFF" fill-opacity="0.90">American Restoration Tech</text>
  <text x="600" y="344" text-anchor="middle"
        font-family="Inter, Helvetica, Arial, sans-serif" font-size="14"
        font-weight="500" letter-spacing="1.4"
        fill="#FFFFFF" fill-opacity="0.40">SOCIAL SHARE IMAGE</text>
</svg>
