<svg xmlns="http://www.w3.org/2000/svg" viewBox="0 0 1200 1500" width="1200" height="1500"
     role="img" aria-label="Mold remediation — illustrated placeholder">
  <defs>
<linearGradient id="wallb3816" x1="0" y1="0" x2="0" y2="1"><stop offset="0" stop-color="#94969a" stop-opacity="1"/><stop offset="1" stop-color="#6E7176" stop-opacity="1"/></linearGradient>
<linearGradient id="flrb3816" x1="0" y1="0" x2="0" y2="1"><stop offset="0" stop-color="#8B8E91" stop-opacity="1"/><stop offset="1" stop-color="#6C6F72" stop-opacity="1"/></linearGradient>
<filter id="grb3816" x="0" y="0" width="100%" height="100%">
      <feTurbulence type="fractalNoise" baseFrequency="0.9" numOctaves="3" seed="7" result="n"/>
      <feColorMatrix in="n" type="saturate" values="0"/>
      <feComponentTransfer><feFuncA type="linear" slope="0.5"/></feComponentTransfer>
    </filter>
<radialGradient id="vgb3816" cx="0.5" cy="0.48" r="0.76">
      <stop offset="0.42" stop-color="#000" stop-opacity="0"/>
      <stop offset="1" stop-color="#000" stop-opacity="0.42"/>
    </radialGradient>
  </defs>
<rect x="0.0" y="0.0" width="1200.0" height="1170.0" fill="url(#wallb3816)"/>
<rect x="0.0" y="1170.0" width="1200.0" height="330.0" fill="url(#flrb3816)"/>
<line x1="300.0" y1="0.0" x2="300.0" y2="1170.0" stroke="#000" stroke-width="1.60" stroke-opacity="0.070" stroke-linecap="butt"/>
<line x1="600.0" y1="0.0" x2="600.0" y2="1170.0" stroke="#000" stroke-width="1.60" stroke-opacity="0.070" stroke-linecap="butt"/>
<line x1="900.0" y1="0.0" x2="900.0" y2="1170.0" stroke="#000" stroke-width="1.60" stroke-opacity="0.070" stroke-linecap="butt"/>
<rect x="0.0" y="780.0" width="1200.0" height="390.0" fill="#5F6A63" fill-opacity="0.300"/>
<rect x="0.0" y="765.0" width="1200.0" height="18.0" fill="#4A5750" fill-opacity="0.450"/>
<path d="M1084.4,1137.5 Q1084.4,1137.5 1081.0,1139.5 Q1077.6,1141.5 1076.3,1144.8 Q1075.1,1148.0 1069.4,1148.2 Q1063.8,1148.4 1056.4,1148.7 Q1049.0,1148.9 1045.2,1145.3 Q1041.4,1141.7 1044.6,1138.0 Q1047.9,1134.4 1051.1,1131.9 Q1054.3,1129.4 1059.1,1128.1 Q1063.8,1126.7 1069.3,1127.0 Q1074.7,1127.3 1081.2,1128.5 Q1087.7,1129.7 1086.1,1133.6 Z" fill="#25301F" fill-opacity="0.453"/>
<path d="M913.1,1051.3 Q913.1,1051.3 910.3,1062.4 Q907.5,1073.4 897.6,1082.2 Q887.6,1090.9 871.6,1099.1 Q855.7,1107.4 843.6,1095.4 Q831.5,1083.5 816.3,1075.1 Q801.1,1066.8 803.5,1051.9 Q805.9,1037.0 816.1,1025.7 Q826.3,1014.4 840.6,1002.7 Q854.9,991.0 871.4,1001.0 Q888.0,1011.1 890.6,1024.0 Q893.2,1036.8 903.2,1044.1 Z" fill="#3D4A33" fill-opacity="0.423"/>
<path d="M433.7,901.7 Q433.7,901.7 433.3,904.5 Q432.9,907.3 430.6,909.7 Q428.2,912.1 424.4,913.1 Q420.6,914.0 416.7,912.7 Q412.8,911.3 409.1,908.6 Q405.4,906.0 405.0,901.6 Q404.6,897.3 407.5,893.6 Q410.5,889.9 415.8,891.2 Q421.1,892.5 424.2,892.8 Q427.3,893.1 429.1,895.2 Q430.9,897.3 432.3,899.5 Z" fill="#3D4A33" fill-opacity="0.316"/>
<path d="M1005.0,1122.7 Q1005.0,1122.7 1010.3,1141.0 Q1015.5,1159.3 997.2,1166.3 Q978.9,1173.3 960.0,1188.4 Q941.2,1203.5 932.4,1179.2 Q923.5,1154.9 900.8,1149.0 Q878.1,1143.2 895.1,1127.3 Q912.2,1111.5 919.4,1102.6 Q926.5,1093.8 934.4,1071.7 Q942.4,1049.6 959.4,1063.3 Q976.4,1077.1 990.1,1085.1 Q1003.9,1093.1 1004.4,1107.9 Z" fill="#2F3A2C" fill-opacity="0.380"/>
<path d="M327.5,970.8 Q327.5,970.8 322.6,986.4 Q317.7,1002.0 303.6,1013.5 Q289.6,1025.0 271.5,1018.8 Q253.3,1012.7 236.9,1011.3 Q220.5,1009.8 199.9,1000.4 Q179.2,991.0 186.7,972.6 Q194.2,954.3 206.2,941.9 Q218.2,929.4 233.7,917.2 Q249.2,904.9 271.8,906.3 Q294.4,907.6 293.2,930.6 Q291.9,953.6 309.7,962.2 Z" fill="#25301F" fill-opacity="0.393"/>
<path d="M1102.3,1074.4 Q1102.3,1074.4 1104.0,1091.3 Q1105.6,1108.2 1088.1,1114.6 Q1070.6,1120.9 1054.6,1123.7 Q1038.6,1126.5 1031.8,1111.8 Q1025.0,1097.1 1003.5,1094.3 Q982.0,1091.5 982.4,1074.5 Q982.8,1057.6 994.2,1044.7 Q1005.7,1031.9 1023.1,1033.3 Q1040.5,1034.7 1058.0,1026.5 Q1075.5,1018.3 1079.3,1036.0 Q1083.1,1053.6 1092.7,1064.0 Z" fill="#25301F" fill-opacity="0.625"/>
<path d="M312.4,931.7 Q312.4,931.7 314.4,938.5 Q316.5,945.4 305.1,948.0 Q293.8,950.6 283.9,949.6 Q274.0,948.6 268.0,945.4 Q262.0,942.2 248.0,940.6 Q234.0,939.0 246.2,933.7 Q258.3,928.4 252.2,919.7 Q246.1,911.0 259.5,910.8 Q272.8,910.6 283.8,911.1 Q294.8,911.6 300.0,916.8 Q305.2,922.1 308.8,926.9 Z" fill="#25301F" fill-opacity="0.353"/>
<path d="M671.0,918.6 Q671.0,918.6 663.3,926.5 Q655.5,934.4 651.7,945.5 Q647.9,956.7 635.0,961.6 Q622.1,966.5 608.8,960.9 Q595.5,955.4 586.4,944.2 Q577.2,933.0 586.7,921.2 Q596.2,909.5 602.3,902.7 Q608.4,895.9 616.8,893.1 Q625.1,890.4 637.6,883.3 Q650.1,876.1 660.0,885.1 Q670.0,894.1 670.5,906.4 Z" fill="#4A5138" fill-opacity="0.334"/>
<path d="M897.7,1101.0 Q897.7,1101.0 896.6,1107.0 Q895.5,1113.1 885.3,1112.1 Q875.0,1111.2 869.6,1115.5 Q864.3,1119.8 858.3,1116.7 Q852.3,1113.6 848.3,1109.7 Q844.3,1105.8 849.5,1102.0 Q854.8,1098.3 856.7,1095.8 Q858.5,1093.3 861.6,1088.5 Q864.6,1083.7 871.5,1084.5 Q878.5,1085.4 880.4,1090.1 Q882.2,1094.8 890.0,1097.9 Z" fill="#3D4A33" fill-opacity="0.695"/>
<path d="M348.8,928.0 Q348.8,928.0 332.9,936.3 Q316.9,944.7 304.8,948.0 Q292.7,951.4 281.4,952.4 Q270.1,953.5 259.2,950.8 Q248.3,948.1 233.0,943.5 Q217.8,938.8 224.3,929.2 Q230.8,919.6 237.5,912.2 Q244.2,904.8 257.0,903.3 Q269.9,901.8 286.1,896.5 Q302.4,891.1 312.0,900.2 Q321.6,909.3 335.2,918.6 Z" fill="#4A5138" fill-opacity="0.482"/>
<path d="M1210.3,910.8 Q1210.3,910.8 1212.3,917.2 Q1214.2,923.6 1209.7,932.4 Q1205.2,941.1 1192.4,938.4 Q1179.5,935.7 1166.0,935.9 Q1152.5,936.1 1152.8,926.6 Q1153.1,917.1 1153.7,911.0 Q1154.3,904.8 1156.5,897.6 Q1158.6,890.3 1169.2,888.6 Q1179.7,886.9 1187.3,891.4 Q1194.9,895.8 1201.3,898.4 Q1207.6,900.9 1209.0,905.9 Z" fill="#4A5138" fill-opacity="0.699"/>
<path d="M481.3,962.5 Q481.3,962.5 489.4,971.8 Q497.5,981.1 488.0,985.3 Q478.6,989.5 468.9,992.9 Q459.1,996.3 455.4,985.9 Q451.7,975.6 447.2,971.9 Q442.7,968.2 435.0,960.5 Q427.4,952.9 438.9,950.5 Q450.4,948.1 455.0,940.3 Q459.7,932.5 470.0,932.3 Q480.4,932.2 487.2,939.0 Q494.0,945.9 487.6,954.2 Z" fill="#25301F" fill-opacity="0.450"/>
<path d="M1209.8,988.7 Q1209.8,988.7 1199.7,999.0 Q1189.6,1009.2 1180.6,1017.7 Q1171.5,1026.3 1157.8,1025.0 Q1144.1,1023.7 1133.2,1019.4 Q1122.3,1015.0 1119.8,1005.8 Q1117.3,996.6 1110.1,987.0 Q1103.0,977.5 1107.3,965.0 Q1111.6,952.5 1128.7,957.8 Q1145.8,963.0 1159.5,955.6 Q1173.2,948.1 1179.7,959.1 Q1186.2,970.1 1198.0,979.4 Z" fill="#2F3A2C" fill-opacity="0.590"/>
<path d="M509.7,1129.4 Q509.7,1129.4 493.1,1134.7 Q476.5,1140.0 472.4,1148.1 Q468.4,1156.2 454.7,1150.8 Q441.0,1145.3 422.8,1149.8 Q404.7,1154.2 406.9,1144.6 Q409.1,1135.0 406.3,1129.0 Q403.6,1122.9 406.5,1115.2 Q409.4,1107.4 423.6,1104.7 Q437.8,1101.9 453.6,1101.8 Q469.3,1101.6 472.0,1110.5 Q474.7,1119.4 492.2,1124.4 Z" fill="#4A5138" fill-opacity="0.421"/>
<path d="M738.4,891.6 Q738.4,891.6 747.3,911.4 Q756.2,931.2 738.0,945.8 Q719.8,960.4 697.0,948.0 Q674.1,935.5 657.4,933.2 Q640.6,930.9 631.8,918.4 Q623.0,905.9 621.6,891.3 Q620.2,876.7 626.2,860.5 Q632.2,844.3 651.2,834.6 Q670.2,824.9 689.3,834.1 Q708.4,843.3 720.9,853.8 Q733.4,864.2 735.9,877.9 Z" fill="#2F3A2C" fill-opacity="0.685"/>
<path d="M968.7,990.4 Q968.7,990.4 969.4,995.2 Q970.1,1000.0 966.2,1005.9 Q962.4,1011.8 952.8,1012.0 Q943.1,1012.2 934.9,1009.4 Q926.7,1006.7 926.0,1000.8 Q925.2,994.8 927.5,990.9 Q929.8,986.9 931.1,982.7 Q932.4,978.5 938.7,978.1 Q945.1,977.8 951.2,977.1 Q957.3,976.4 959.8,980.3 Q962.2,984.2 965.5,987.3 Z" fill="#3D4A33" fill-opacity="0.515"/>
<path d="M855.7,1147.3 Q855.7,1147.3 852.7,1151.2 Q849.7,1155.2 849.0,1163.7 Q848.3,1172.3 836.0,1168.9 Q823.8,1165.5 817.9,1161.8 Q812.0,1158.1 804.7,1155.3 Q797.5,1152.5 790.1,1146.0 Q782.7,1139.6 797.6,1138.2 Q812.5,1136.8 817.7,1130.9 Q822.8,1125.1 831.6,1128.6 Q840.4,1132.1 853.1,1132.8 Q865.9,1133.4 860.8,1140.3 Z" fill="#4A5138" fill-opacity="0.582"/>
<path d="M743.8,671.0 Q743.8,671.0 749.2,679.9 Q754.6,688.7 746.3,695.7 Q738.1,702.6 725.8,704.6 Q713.6,706.6 706.0,698.8 Q698.4,690.9 695.2,684.3 Q691.9,677.6 688.8,670.3 Q685.6,663.0 688.8,654.1 Q692.1,645.3 702.6,639.4 Q713.2,633.4 721.6,643.5 Q730.0,653.6 738.7,655.3 Q747.3,657.0 745.6,664.0 Z" fill="#4A5138" fill-opacity="0.477"/>
<path d="M165.7,901.6 Q165.7,901.6 158.4,914.2 Q151.0,926.8 136.7,929.4 Q122.4,932.0 111.9,933.2 Q101.3,934.4 92.3,929.9 Q83.3,925.4 68.1,920.5 Q52.8,915.6 49.6,900.7 Q46.4,885.9 53.4,870.2 Q60.4,854.4 80.7,860.5 Q101.0,866.5 119.1,854.5 Q137.2,842.5 149.1,856.6 Q161.1,870.6 163.4,886.1 Z" fill="#25301F" fill-opacity="0.402"/>
<path d="M334.5,1169.5 Q334.5,1169.5 322.0,1176.2 Q309.5,1182.9 302.8,1187.8 Q296.1,1192.7 285.0,1203.1 Q273.8,1213.5 262.3,1205.3 Q250.7,1197.1 241.9,1188.8 Q233.0,1180.5 235.7,1170.1 Q238.4,1159.7 242.8,1149.3 Q247.2,1138.9 260.8,1133.6 Q274.3,1128.3 291.5,1126.8 Q308.7,1125.3 314.9,1137.9 Q321.1,1150.4 327.8,1160.0 Z" fill="#25301F" fill-opacity="0.558"/>
<path d="M388.0,1043.4 Q388.0,1043.4 369.2,1050.6 Q350.4,1057.9 348.2,1071.5 Q345.9,1085.2 328.2,1092.1 Q310.5,1099.0 296.4,1088.2 Q282.4,1077.4 272.0,1067.1 Q261.7,1056.7 274.6,1046.3 Q287.4,1035.9 288.4,1025.7 Q289.3,1015.5 302.8,1017.0 Q316.3,1018.5 325.8,1018.8 Q335.4,1019.1 360.1,1015.6 Q384.7,1012.1 386.3,1027.7 Z" fill="#3D4A33" fill-opacity="0.413"/>
<path d="M535.0,1159.0 Q535.0,1159.0 526.0,1167.5 Q516.9,1175.9 510.1,1184.1 Q503.3,1192.3 491.6,1189.7 Q479.9,1187.2 472.3,1182.7 Q464.7,1178.2 453.1,1173.8 Q441.6,1169.5 446.4,1160.2 Q451.2,1150.9 453.6,1141.1 Q455.9,1131.4 467.3,1127.5 Q478.7,1123.5 487.7,1130.5 Q496.7,1137.6 504.1,1141.3 Q511.4,1144.9 523.2,1152.0 Z" fill="#25301F" fill-opacity="0.657"/>
<path d="M815.5,699.5 Q815.5,699.5 804.5,709.5 Q793.5,719.4 786.1,730.0 Q778.6,740.6 761.9,750.7 Q745.2,760.8 736.4,743.5 Q727.7,726.3 714.1,719.6 Q700.4,712.9 703.0,700.1 Q705.6,687.3 709.0,672.8 Q712.5,658.2 729.3,650.9 Q746.1,643.5 765.5,645.3 Q784.9,647.1 789.1,663.4 Q793.3,679.6 804.4,689.6 Z" fill="#4A5138" fill-opacity="0.636"/>
<path d="M916.6,1088.7 Q916.6,1088.7 912.0,1098.7 Q907.3,1108.7 894.0,1114.0 Q880.7,1119.4 866.4,1118.9 Q852.2,1118.5 833.5,1120.0 Q814.7,1121.5 810.7,1110.1 Q806.6,1098.6 803.5,1088.2 Q800.4,1077.7 819.4,1075.6 Q838.4,1073.5 845.3,1066.4 Q852.3,1059.2 869.9,1053.8 Q887.6,1048.4 896.2,1059.1 Q904.9,1069.7 910.8,1079.2 Z" fill="#25301F" fill-opacity="0.464"/>
<path d="M1079.1,1164.9 Q1079.1,1164.9 1070.3,1174.1 Q1061.5,1183.3 1054.5,1191.6 Q1047.4,1199.8 1035.7,1200.9 Q1023.9,1202.0 1018.3,1192.4 Q1012.7,1182.8 1001.3,1179.1 Q989.8,1175.5 996.6,1166.7 Q1003.4,1157.9 1005.3,1149.5 Q1007.1,1141.2 1016.2,1138.7 Q1025.3,1136.3 1034.6,1136.5 Q1044.0,1136.8 1048.0,1144.3 Q1052.1,1151.9 1065.6,1158.4 Z" fill="#3D4A33" fill-opacity="0.545"/>
<path d="M980.2,805.7 Q980.2,805.7 996.7,823.6 Q1013.2,841.6 993.7,850.5 Q974.1,859.5 955.7,849.7 Q937.2,839.9 915.1,846.1 Q892.9,852.3 883.7,837.1 Q874.4,821.9 879.4,806.9 Q884.4,791.8 889.9,776.6 Q895.5,761.5 913.5,750.3 Q931.4,739.2 950.5,749.4 Q969.6,759.7 982.1,769.5 Q994.6,779.3 987.4,792.5 Z" fill="#25301F" fill-opacity="0.634"/>
<path d="M1172.6,909.0 Q1172.6,909.0 1165.6,927.9 Q1158.7,946.7 1141.1,956.4 Q1123.5,966.0 1104.2,971.4 Q1084.9,976.8 1064.7,970.2 Q1044.4,963.7 1037.3,945.2 Q1030.3,926.8 1031.0,909.2 Q1031.6,891.7 1037.5,872.5 Q1043.3,853.3 1066.2,860.8 Q1089.1,868.4 1102.1,868.8 Q1115.1,869.2 1131.6,873.5 Q1148.0,877.7 1160.3,893.4 Z" fill="#4A5138" fill-opacity="0.445"/>
<path d="M1202.3,1038.6 Q1202.3,1038.6 1196.6,1041.5 Q1190.9,1044.4 1189.8,1049.2 Q1188.6,1053.9 1183.9,1051.9 Q1179.1,1049.9 1174.7,1049.8 Q1170.2,1049.8 1166.7,1046.5 Q1163.2,1043.3 1161.6,1038.2 Q1160.1,1033.1 1166.6,1031.8 Q1173.2,1030.6 1175.6,1025.8 Q1178.1,1021.0 1182.4,1024.1 Q1186.7,1027.1 1192.6,1027.8 Q1198.5,1028.4 1200.4,1033.5 Z" fill="#3D4A33" fill-opacity="0.572"/>
<path d="M709.0,1102.8 Q709.0,1102.8 717.3,1112.1 Q725.7,1121.5 707.8,1121.2 Q689.9,1120.9 680.5,1121.0 Q671.2,1121.0 661.9,1119.7 Q652.6,1118.4 645.1,1113.8 Q637.7,1109.3 633.6,1102.0 Q629.4,1094.8 644.1,1093.1 Q658.7,1091.3 664.9,1087.6 Q671.0,1083.8 680.1,1084.8 Q689.1,1085.7 698.1,1088.3 Q707.1,1091.0 708.0,1096.9 Z" fill="#4A5138" fill-opacity="0.451"/>
<path d="M596.2,1046.4 Q596.2,1046.4 594.6,1051.7 Q593.0,1057.0 585.8,1060.1 Q578.6,1063.2 569.5,1067.1 Q560.3,1070.9 547.0,1070.1 Q533.6,1069.3 533.4,1060.8 Q533.2,1052.3 525.8,1045.1 Q518.4,1037.9 532.2,1035.1 Q546.1,1032.3 552.9,1025.6 Q559.6,1018.9 569.2,1024.2 Q578.7,1029.6 589.8,1031.2 Q600.8,1032.8 598.5,1039.6 Z" fill="#4A5138" fill-opacity="0.424"/>
<path d="M1069.5,1129.9 Q1069.5,1129.9 1073.0,1140.3 Q1076.5,1150.7 1060.9,1155.4 Q1045.3,1160.0 1028.7,1166.0 Q1012.1,1172.0 1000.8,1162.2 Q989.5,1152.5 970.8,1147.4 Q952.1,1142.2 955.2,1130.5 Q958.3,1118.8 963.9,1106.2 Q969.5,1093.7 992.0,1095.7 Q1014.5,1097.6 1029.8,1098.9 Q1045.1,1100.2 1050.3,1108.7 Q1055.6,1117.2 1062.5,1123.6 Z" fill="#3D4A33" fill-opacity="0.345"/>
<path d="M874.3,1128.6 Q874.3,1128.6 871.6,1136.4 Q868.9,1144.1 862.1,1152.0 Q855.3,1159.8 842.7,1159.3 Q830.1,1158.9 813.9,1160.1 Q797.6,1161.3 786.9,1151.4 Q776.2,1141.5 784.7,1130.4 Q793.1,1119.3 795.8,1108.0 Q798.5,1096.7 812.6,1088.7 Q826.7,1080.8 840.3,1090.2 Q853.9,1099.7 872.1,1101.3 Q890.3,1102.8 882.3,1115.7 Z" fill="#3D4A33" fill-opacity="0.340"/>
<path d="M537.4,1168.1 Q537.4,1168.1 532.8,1178.1 Q528.3,1188.0 518.6,1197.1 Q508.9,1206.1 491.8,1210.4 Q474.8,1214.7 458.0,1208.9 Q441.2,1203.1 426.7,1193.1 Q412.2,1183.0 426.3,1171.0 Q440.4,1159.0 443.2,1147.9 Q446.0,1136.9 460.6,1130.0 Q475.1,1123.1 493.2,1124.7 Q511.3,1126.2 528.0,1133.4 Q544.7,1140.6 541.1,1154.4 Z" fill="#3D4A33" fill-opacity="0.405"/>
<path d="M1230.5,878.2 Q1230.5,878.2 1238.8,895.2 Q1247.2,912.1 1228.0,914.7 Q1208.7,917.3 1196.3,913.9 Q1183.9,910.5 1164.0,917.9 Q1144.0,925.4 1137.2,909.6 Q1130.4,893.8 1127.5,877.4 Q1124.5,861.0 1144.9,857.1 Q1165.3,853.2 1172.2,834.2 Q1179.1,815.2 1194.3,826.2 Q1209.6,837.3 1218.7,846.4 Q1227.8,855.6 1229.1,866.9 Z" fill="#2F3A2C" fill-opacity="0.393"/>
<path d="M552.8,444.5 Q552.8,444.5 558.1,461.5 Q563.4,478.5 552.6,483.6 Q541.9,488.7 533.6,483.9 Q525.4,479.2 517.1,479.2 Q508.9,479.2 504.9,468.1 Q500.8,457.0 503.2,445.6 Q505.7,434.3 505.6,419.2 Q505.6,404.1 514.6,397.8 Q523.6,391.5 537.0,382.0 Q550.3,372.4 555.5,392.8 Q560.8,413.2 556.8,428.9 Z" fill="#333D2B" fill-opacity="0.308"/>
<path d="M455.9,491.0 Q455.9,491.0 458.3,497.8 Q460.6,504.6 449.6,509.7 Q438.6,514.8 421.7,519.7 Q404.8,524.6 385.5,521.0 Q366.2,517.3 365.8,507.5 Q365.4,497.8 350.1,488.9 Q334.8,480.0 359.1,476.9 Q383.5,473.9 393.1,462.3 Q402.7,450.6 427.6,451.7 Q452.5,452.9 455.6,465.4 Q458.8,477.9 457.4,484.4 Z" fill="#333D2B" fill-opacity="0.224"/>
<path d="M380.9,580.2 Q380.9,580.2 381.2,593.2 Q381.6,606.3 375.1,615.4 Q368.7,624.5 359.1,638.5 Q349.4,652.5 341.0,637.7 Q332.6,623.0 331.2,607.7 Q329.8,592.4 324.7,577.8 Q319.7,563.2 331.4,559.9 Q343.1,556.5 346.9,539.4 Q350.7,522.3 358.5,533.3 Q366.2,544.4 371.3,551.9 Q376.3,559.4 378.6,569.8 Z" fill="#333D2B" fill-opacity="0.225"/>
<path d="M569.4,418.5 Q569.4,418.5 564.7,428.0 Q560.0,437.6 556.8,452.0 Q553.6,466.4 541.3,471.8 Q529.0,477.2 511.1,478.2 Q493.2,479.2 496.1,455.5 Q499.1,431.8 497.0,417.7 Q494.9,403.6 496.8,384.5 Q498.6,365.4 515.2,374.0 Q531.7,382.6 540.3,382.8 Q549.0,383.0 568.5,380.0 Q588.0,377.1 578.7,397.8 Z" fill="#333D2B" fill-opacity="0.418"/>
<path d="M271.1,555.1 Q271.1,555.1 261.1,565.9 Q251.1,576.8 247.4,585.7 Q243.8,594.7 238.0,597.4 Q232.2,600.0 223.4,602.9 Q214.7,605.9 215.5,586.4 Q216.4,566.9 208.1,549.9 Q199.7,532.8 209.9,525.3 Q220.1,517.7 226.4,517.8 Q232.8,517.9 240.2,507.6 Q247.6,497.4 250.8,513.4 Q254.0,529.4 262.6,542.2 Z" fill="#333D2B" fill-opacity="0.381"/>
<path d="M588.6,572.3 Q588.6,572.3 580.6,583.4 Q572.5,594.5 548.0,594.4 Q523.5,594.2 507.6,604.0 Q491.6,613.8 484.5,600.6 Q477.4,587.4 467.9,583.1 Q458.3,578.9 445.3,570.3 Q432.2,561.8 454.5,559.3 Q476.9,556.8 485.4,548.0 Q494.0,539.1 512.8,540.3 Q531.5,541.5 557.2,544.1 Q582.9,546.7 585.8,559.5 Z" fill="#333D2B" fill-opacity="0.399"/>
<path d="M367.1,384.0 Q367.1,384.0 362.4,400.7 Q357.7,417.4 344.7,417.7 Q331.8,418.1 324.6,417.1 Q317.4,416.2 303.8,424.8 Q290.2,433.3 293.5,413.6 Q296.8,393.9 292.9,382.4 Q289.0,371.0 290.5,354.3 Q292.0,337.6 304.5,342.4 Q316.9,347.2 327.4,339.2 Q337.9,331.2 348.1,340.7 Q358.2,350.2 362.7,367.1 Z" fill="#333D2B" fill-opacity="0.227"/>
<path d="M349.2,335.0 Q349.2,335.0 331.6,350.2 Q314.0,365.4 295.9,369.9 Q277.7,374.4 260.8,386.9 Q244.0,399.3 230.4,385.2 Q216.7,371.0 211.7,358.8 Q206.7,346.5 206.2,334.8 Q205.6,323.1 205.9,306.1 Q206.2,289.1 225.2,280.3 Q244.1,271.5 266.5,273.5 Q288.9,275.5 303.7,288.9 Q318.4,302.2 333.8,318.6 Z" fill="#333D2B" fill-opacity="0.330"/>
<path d="M377.5,874.3 Q377.5,874.3 374.0,888.0 Q370.4,901.6 358.2,900.9 Q345.9,900.2 338.7,908.4 Q331.5,916.5 326.5,906.2 Q321.4,895.9 317.5,889.3 Q313.7,882.6 303.7,870.7 Q293.7,858.7 306.3,853.8 Q318.8,849.0 324.5,834.8 Q330.2,820.5 338.9,832.0 Q347.7,843.5 364.5,840.9 Q381.2,838.4 379.4,856.4 Z" fill="#333D2B" fill-opacity="0.424"/>
<path d="M191.2,397.8 Q191.2,397.8 180.2,410.1 Q169.3,422.5 168.1,449.4 Q166.9,476.3 145.9,478.2 Q124.9,480.0 114.3,459.6 Q103.7,439.1 103.9,423.6 Q104.0,408.2 95.7,395.0 Q87.4,381.8 88.2,359.5 Q89.0,337.2 109.7,347.8 Q130.3,358.4 139.9,360.5 Q149.5,362.6 168.2,361.4 Q187.0,360.1 189.1,378.9 Z" fill="#333D2B" fill-opacity="0.251"/>
<path d="M546.0,687.3 Q546.0,687.3 551.9,702.6 Q557.8,718.0 531.5,718.3 Q505.1,718.6 490.4,718.4 Q475.7,718.1 457.0,718.9 Q438.4,719.7 419.6,711.1 Q400.8,702.6 416.2,690.2 Q431.6,677.8 442.4,671.8 Q453.1,665.7 465.0,663.9 Q476.9,662.0 490.7,659.5 Q504.5,657.1 525.9,659.0 Q547.4,661.0 546.7,674.2 Z" fill="#333D2B" fill-opacity="0.224"/>
<path d="M48.5,484.8 Q48.5,484.8 42.4,497.1 Q36.3,509.3 28.9,517.8 Q21.5,526.2 11.0,535.0 Q0.4,543.9 -6.3,529.3 Q-13.1,514.8 -29.0,509.7 Q-44.9,504.6 -39.7,486.8 Q-34.4,469.1 -26.1,458.5 Q-17.8,447.8 -8.6,437.3 Q0.5,426.9 11.3,434.5 Q22.0,442.1 25.0,454.7 Q28.1,467.2 38.3,476.0 Z" fill="#333D2B" fill-opacity="0.436"/>
<path d="M44.5,614.2 Q44.5,614.2 39.5,625.9 Q34.4,637.7 28.4,646.5 Q22.3,655.3 13.6,658.8 Q4.9,662.2 -3.0,655.5 Q-10.8,648.8 -25.0,642.1 Q-39.3,635.3 -37.0,615.1 Q-34.8,595.0 -26.3,581.2 Q-17.9,567.5 -7.8,553.1 Q2.2,538.8 11.2,559.5 Q20.1,580.1 25.8,586.7 Q31.5,593.4 38.0,603.8 Z" fill="#333D2B" fill-opacity="0.362"/>
<path d="M252.7,260.6 Q252.7,260.6 252.2,270.4 Q251.7,280.3 243.5,283.1 Q235.3,285.8 227.8,293.8 Q220.4,301.8 210.1,298.5 Q199.8,295.2 194.3,284.2 Q188.8,273.2 187.3,260.0 Q185.7,246.9 193.1,236.9 Q200.6,226.9 211.0,227.4 Q221.4,227.8 227.9,232.8 Q234.3,237.8 241.3,240.6 Q248.3,243.4 250.5,252.0 Z" fill="#333D2B" fill-opacity="0.280"/>
<line x1="370.7" y1="101.8" x2="371.1" y2="1170.0" stroke="#4C5A52" stroke-width="4.90" stroke-opacity="0.200" stroke-linecap="butt"/>
<line x1="568.6" y1="229.2" x2="571.8" y2="1170.0" stroke="#4C5A52" stroke-width="5.33" stroke-opacity="0.200" stroke-linecap="butt"/>
<line x1="432.5" y1="183.7" x2="432.6" y2="1170.0" stroke="#4C5A52" stroke-width="4.48" stroke-opacity="0.200" stroke-linecap="butt"/>
<line x1="578.2" y1="363.7" x2="580.1" y2="1170.0" stroke="#4C5A52" stroke-width="5.02" stroke-opacity="0.200" stroke-linecap="butt"/>
<line x1="865.7" y1="301.1" x2="869.8" y2="1170.0" stroke="#4C5A52" stroke-width="5.27" stroke-opacity="0.200" stroke-linecap="butt"/>
<line x1="307.7" y1="253.9" x2="313.9" y2="1170.0" stroke="#4C5A52" stroke-width="5.70" stroke-opacity="0.200" stroke-linecap="butt"/>
<line x1="950.5" y1="117.0" x2="958.2" y2="1170.0" stroke="#4C5A52" stroke-width="6.62" stroke-opacity="0.200" stroke-linecap="butt"/>
<rect x="840.0" y="270.0" width="264.0" height="900.0" fill="#6E7176" fill-opacity="0.550"/>
<rect x="840.0" y="270.0" width="21.6" height="900.0" fill="#8A8377" fill-opacity="0.800"/>
<rect x="928.0" y="270.0" width="21.6" height="900.0" fill="#8A8377" fill-opacity="0.800"/>
<rect x="1016.0" y="270.0" width="21.6" height="900.0" fill="#8A8377" fill-opacity="0.800"/>
<rect x="0.0" y="1170.0" width="1200.0" height="330.0" fill="#000" fill-opacity="0.100"/>
<text x="1179" y="1479" text-anchor="end" font-family="Inter, Helvetica, Arial, sans-serif" font-size="23" font-weight="600" letter-spacing="1.9" fill="#FFFFFF" fill-opacity="0.34">PLACEHOLDER</text>
  <rect width="1200" height="1500" filter="url(#grb3816)" opacity="0.5" style="mix-blend-mode:overlay"/>
  <rect width="1200" height="1500" fill="url(#vgb3816)"/>
</svg>
